<svg width="32" height="32" viewBox="0 0 32 32" xmlns="http://www.w3.org/2000/svg">
  <defs>
    <!-- Cloud gradient -->
    <linearGradient id="cloudGradient" x1="0%" y1="0%" x2="100%" y2="100%">
      <stop offset="0%" style="stop-color:#e0f2fe;stop-opacity:0.8" />
      <stop offset="50%" style="stop-color:#b3e5fc;stop-opacity:0.6" />
      <stop offset="100%" style="stop-color:#81d4fa;stop-opacity:0.4" />
    </linearGradient>
    
    <!-- Background gradient -->
    <radialGradient id="bgGradient" cx="50%" cy="50%" r="70%">
      <stop offset="0%" style="stop-color:#1e293b;stop-opacity:1" />
      <stop offset="100%" style="stop-color:#0f172a;stop-opacity:1" />
    </radialGradient>
  </defs>
  
  <!-- Background -->
  <circle cx="16" cy="16" r="15" fill="url(#bgGradient)" stroke="#334155" stroke-width="2"/>
  
  <!-- Cloud shapes behind brackets (layered for depth) -->
  <!-- Main cloud -->
  <ellipse cx="16" cy="14" rx="8" ry="4" fill="url(#cloudGradient)" opacity="0.6"/>
  <circle cx="12" cy="14" r="3" fill="url(#cloudGradient)" opacity="0.5"/>
  <circle cx="20" cy="14" r="2.5" fill="url(#cloudGradient)" opacity="0.5"/>
  <circle cx="16" cy="12" r="2.8" fill="url(#cloudGradient)" opacity="0.7"/>
  
  <!-- Smaller cloud elements -->
  <ellipse cx="10" cy="18" rx="2.5" ry="1.5" fill="url(#cloudGradient)" opacity="0.3"/>
  <ellipse cx="22" cy="18" rx="2" ry="1.2" fill="url(#cloudGradient)" opacity="0.3"/>
  
  <!-- Left Bracket -->
  <path d="M8 10 L6 10 Q4 10 4 12 L4 20 Q4 22 6 22 L8 22" 
        stroke="#00d4ff" stroke-width="2.2" fill="none" stroke-linecap="round"/>
  
  <!-- Right Bracket -->
  <path d="M24 10 L26 10 Q28 10 28 12 L28 20 Q28 22 26 22 L24 22" 
        stroke="#00d4ff" stroke-width="2.2" fill="none" stroke-linecap="round"/>
  
  <!-- Letter Y (more prominent) -->
  <path d="M12 11 L16 16 L20 11 M16 16 L16 21" 
        stroke="#ffffff" stroke-width="2.8" fill="none" stroke-linecap="round" stroke-linejoin="round"/>
  
  <!-- Subtle sparkle effects around the design -->
  <circle cx="9" cy="8" r="0.8" fill="#00d4ff" opacity="0.8"/>
  <circle cx="23" cy="8" r="0.6" fill="#ffffff" opacity="0.6"/>
  <circle cx="26" cy="25" r="0.5" fill="#00d4ff" opacity="0.7"/>
  <circle cx="6" cy="25" r="0.7" fill="#ffffff" opacity="0.5"/>
  
  <!-- Additional small cloud wisps for dreamy effect -->
  <ellipse cx="8" cy="12" rx="1.5" ry="0.8" fill="url(#cloudGradient)" opacity="0.2"/>
  <ellipse cx="24" cy="20" rx="1.2" ry="0.6" fill="url(#cloudGradient)" opacity="0.2"/>
</svg>